<?xml version="1.0" standalone="no"?><!DOCTYPE svg PUBLIC "-//W3C//DTD SVG 1.1//EN" "http://www.w3.org/Graphics/SVG/1.1/DTD/svg11.dtd"><svg t="1528531502128" class="icon" style="" viewBox="0 0 1024 1024" version="1.1" xmlns="http://www.w3.org/2000/svg" p-id="5659" xmlns:xlink="http://www.w3.org/1999/xlink" width="200" height="200"><defs><style type="text/css"></style></defs><path d="M168.054 901.289c13.409 21.027 41.265 27.297 62.39 14.031l764.289-483.99c21.093-13.361 27.376-41.287 14.031-62.39L855.666 127.195c-13.396-21.042-41.276-27.316-62.39-14.032L28.981 597.15c-12.454 7.941-19.739 20.951-20.855 34.629v7.303a45.132 45.132 0 0 0 6.794 20.486l153.134 241.721z m-128.857-269a14.313 14.313 0 0 1 6.343-8.971l0.031-0.037 764.26-484.021a14.331 14.331 0 0 1 19.804 4.392l0.064 0.097 153.2 241.75c4.039 6.767 2.047 15.518-4.524 19.869L214.02 889.393c-6.722 4.225-15.594 2.219-19.834-4.496v-0.064L41.082 643.117a14.292 14.292 0 0 1-1.885-10.828zM216.148 379.732l25.965 20.391 0.395-32.982 27.405-18.424-31.242-10.59-9.017-31.803-19.733 26.487-32.982-1.209 19.082 26.886-11.413 31.04zM319.448 251.966l12.753 30.491 16.429-28.62 32.849-2.624-22.128-24.525 7.536-32.055-30.062 13.505-28.228-17.079 3.573 32.845-25.01 21.311zM810.75 647.246l-26.097-20.029-0.131 32.98-27.275 18.489 31.375 10.296 9.274 31.631 19.476-26.617 32.982 0.92-19.345-26.754 11.151-30.978zM508.748 867.85l15.634 29.211 13.638-30.096 32.354-5.803-24.389-22.224 4.625-32.723-28.75 16.264-29.671-14.397 6.622 32.229-22.913 23.898zM704.139 778.713l-12.429-30.688-16.716 28.455-32.855 2.395 22.034 24.617-7.77 32.094 30.197-13.238 28.027 17.472-3.341-32.849 25.046-21.248zM514.056 161.252l-15.771-29.013-13.374 30.197-32.486 6.231 24.519 21.998-4.23 32.714 28.619-16.554 29.808 14.162-6.895-32.323 22.659-23.964z" fill="#ff8000" p-id="5660"></path><path d="M295.222 897.094a434.462 434.462 0 0 0 118.551 45.141 437.099 437.099 0 0 0 169.162 4.918 436.533 436.533 0 0 0 163.693-62.684 439.005 439.005 0 0 0 126.643-121.266 442.903 442.903 0 0 0 77.734-281.519l-30.231 19.086c3.912 144.449-68.47 280.308-190.538 357.64-126.379 79.955-280.045 82.285-404.817 19.605l-30.197 19.079zM725.904 125.753a439.801 439.801 0 0 0-118.516-45.178 439.943 439.943 0 0 0-332.885 57.765 439.272 439.272 0 0 0-126.644 121.331 438.08 438.08 0 0 0-68.16 155.009 438.266 438.266 0 0 0-9.802 126.48l30.191-19.051C96.647 382.451 164.479 244.43 290.86 164.437c126.35-79.993 280.009-82.254 404.816-19.606l30.228-19.078z" fill="#ff8000" p-id="5661"></path><path d="M382 308.392a238.645 238.645 0 0 1 113.368-36.687l46.619-29.534a269.782 269.782 0 0 0-176.578 40.255 269.292 269.292 0 0 0-111.792 142.415l46.624-29.535A238.422 238.422 0 0 1 382 308.392zM639.097 714.387a238.134 238.134 0 0 1-113.374 36.686l-46.614 29.539a269.372 269.372 0 0 0 176.603-40.289 268.837 268.837 0 0 0 111.767-142.414l-46.623 29.473a239.118 239.118 0 0 1-81.759 87.005zM204.888 643.482c3.314 0.848 6.745 0.137 10.294-2.127l50.289-32.066 13.707 21.496-70.798 45.145c-3.549 2.264-5.639 5.079-6.271 8.438-0.762 3.446-0.094 6.813 2.001 10.098 2.097 3.288 4.908 5.379 8.437 6.271 3.314 0.847 6.745 0.137 10.295-2.127l60.149-38.354c-5.569 31.29-16.813 60.93-33.733 88.916-2.459 3.975-3.317 7.85-2.573 11.627 0.411 3.253 2.359 6.166 5.856 8.748 3.155 2.053 6.602 2.816 10.334 2.287 9.397-2.664 20.56-21.986 33.492-57.973 3.994-11.422 7.528-24.586 10.601-39.492l39.234 61.529c2.347 3.68 5.368 6.1 9.066 7.257 3.359 0.632 6.725-0.036 10.097-2.001 3.2-2.227 5.184-5.064 5.948-8.508 0.592-3.707-0.218-7.445-2.433-11.21l-39.108-61.331c32.941 7.287 64.229 9.807 93.861 7.555 4.373-0.387 7.956-2.021 10.741-4.906 2.555-2.369 3.748-5.719 3.579-10.049-0.532-3.73-2.022-6.938-4.476-9.629-2.934-2.568-6.87-3.664-11.807-3.291-35.705 3.169-67.274 0.644-94.704-7.572l59.952-38.228c3.285-2.095 5.27-4.931 5.947-8.509 0.762-3.441 0.097-6.81-2-10.098-2.095-3.284-4.909-5.373-8.437-6.27-3.229-0.716-6.555 0.018-9.972 2.196l-70.601 45.019-13.707-21.496 50.091-31.94c3.285-2.095 5.27-4.929 5.948-8.508 0.761-3.441 0.096-6.81-2.001-10.098-2.094-3.284-4.909-5.374-8.437-6.271-3.23-0.715-6.555 0.018-9.972 2.197l-50.091 31.94-11.443-17.945c-2.264-3.55-5.249-5.622-8.958-6.217-3.362-0.63-6.619 0.062-9.774 2.073-3.288 2.096-5.377 4.909-6.271 8.437-0.715 3.229 0.06 6.618 2.323 10.169l11.443 17.945-50.289 32.066c-3.55 2.264-5.639 5.077-6.27 8.438-0.763 3.445-0.094 6.813 2 10.097 2.101 3.29 4.912 5.381 8.441 6.272zM397.469 537.881c2.348 3.682 5.327 6.035 8.94 7.061 3.23 0.715 6.636 0.115 10.223-1.805 3.073-2.141 5.094-4.911 6.074-8.311 0.593-3.706-0.257-7.508-2.558-11.406l-7.419-11.635c-1.39-1.888-1.839-4.189-1.352-6.906 0.701-2.666 2.084-4.562 4.139-5.69l113.789-72.558c3.074-2.142 6.139-1.971 9.203 0.512 1.867 1.771 4.096 5.986 6.686 12.658 2.412 9.003 8.048 12.621 16.908 10.856 3.393-1.055 6.096-3.056 8.103-6 1.884-3.42 2.181-7.307 0.886-11.66-5.088-17.837-11.92-29.57-20.5-35.195-3.672-2.279-7.859-3.77-12.561-4.473-4.639 0.556-8.949 1.918-12.931 4.083l-55.218 35.21c-12.529-9.209-21.753-12.94-27.671-11.204-3.228 1.321-5.787 3.69-7.672 7.11-1.636 3.816-1.901 7.315-0.797 10.495 1.234 3.097 4.932 6.287 11.094 9.569l-53.443 34.078c-5.512 2.959-9.076 8.103-10.695 15.42-1.62 7.322-0.513 13.55 3.318 18.69l13.454 21.101zM420.924 568.14c-0.762 3.446-0.094 6.813 2.001 10.098 2.097 3.288 4.908 5.379 8.437 6.271 3.314 0.847 6.746 0.138 10.295-2.126l37.667-24.019 6.791 10.648c7.797 12.228 10.813 23.341 9.053 33.339-2.023 10.169-10.444 22.196-25.259 36.082-7.267 6.297-7.883 13.16-1.847 20.594 2.884 2.782 6.119 4.234 9.709 4.35 8.561 0.09 19.924-9.931 34.092-30.06 10.052-15.842 13.589-32.34 10.609-49.485-1.753-7.385-6.313-17.146-13.677-29.281l-6.791-10.648 27.806-17.73 31.313 49.105c5.785 9.071 14.488 13.876 26.113 14.416 7.787 0.029 15.623-2.472 23.512-7.502 17.748-11.316 28.164-19.346 31.244-24.084 5.97-10.65 6.855-20.279 2.664-28.884-1.379-2.448-3.935-7.478-7.674-15.079-1.822-4.014-4.73-6.692-8.725-8.029-3.313-0.844-6.715-0.525-10.206 0.96-3.54 1.702-5.712 4.384-6.522 8.042-0.99 3.96 0.922 9.862 5.739 17.7 3.854 6.046-0.906 13.52-14.276 22.418l-3.354 2.139c-3.934 1.953-7.754 2.629-11.461 2.037-4.092-0.906-7.268-3.133-9.531-6.682l-26.156-41.02 42.203-26.911c3.285-2.095 5.27-4.929 5.947-8.508 0.762-3.442 0.096-6.81-2-10.098-2.095-3.284-4.908-5.373-8.438-6.27-3.229-0.715-6.555 0.018-9.971 2.197l-153.035 97.583c-3.55 2.264-5.639 5.077-6.272 8.437z" fill="#ff8000" p-id="5662"></path><path d="M441.644 528.854c3.229 0.715 6.552-0.017 9.972-2.197l87.561-55.834c3.284-2.094 5.204-4.888 5.751-8.382 0.631-3.359-0.018-6.551-1.947-9.577-2.094-3.285-4.799-5.353-8.113-6.2-3.061-0.45-6.279 0.307-9.648 2.269l-87.561 55.833c-3.288 2.097-5.313 4.87-6.074 8.311-0.63 3.362 0.019 6.554 1.947 9.577 2.094 3.289 4.8 5.356 8.112 6.2zM632.867 448.529c16.936 26.558 27.02 51.66 30.26 75.295 0.701 10.094 5.239 15.613 13.612 16.563 3.979-0.136 7.468-1.341 10.456-3.614 2.947-2.623 4.543-6.505 4.777-11.648-1.758-26.248-12.129-54.401-31.11-84.461l-13.958-21.89 26.623-16.976c3.284-2.095 6.701-2.978 10.24-2.647 4.005 0.775 10.269 8.709 18.785 23.805 3.246 6.252 4.89 10.57 4.928 12.947 0.301 2.213-0.086 4.215-1.161 6.011-2.4 3.195-6.751 5.509-13.054 6.936-10.318 3.251-14.205 9.336-11.66 18.255 1.342 4.137 3.701 7.258 7.076 9.357 3.338 1.755 7.506 2.058 12.504 0.903 11.499-4.004 21.479-10.831 29.938-20.478 4.563-5.311 6.788-10.521 6.677-15.63-0.405-11.947-10.039-32.711-28.902-62.293-4.105-6.439-9.219-10.391-15.33-11.86-6.937-1.307-13.867 0.153-20.787 4.378l-39.836 25.402-5.785-9.071c-1.473-2.017-2.005-4.451-1.603-7.299 0.741-2.318 2.183-4.257 4.335-5.816l58.77-37.474c20.188 28.182 44.62 53.011 73.293 74.486a14.148 14.148 0 0 0-0.606 4.27c-5.243 19.618-13.099 38.77-23.554 57.46-2.067 3.719-2.347 7.781-0.832 12.181 1.449 3.143 4.056 5.641 7.828 7.492 3.861 1.421 7.367 1.405 10.512-0.045 2.436-0.816 5.155-3.661 8.154-8.528 10.662-18.081 18.292-37.002 22.892-56.76 15.481 8.617 29.212 12.899 41.198 12.841 4.794 0.272 9.166-0.852 13.11-3.367 5.257-3.352 8.61-6.509 10.055-9.462 4.047-7.574-1.462-26.07-16.519-55.488-1.869-3.801-4.426-6.791-7.668-8.98-3.947-1.547-7.578-1.729-10.889-0.545-4.018 1.823-6.641 4.234-7.869 7.237-1.922 5.109 0.959 14.554 8.637 28.334 2.934 6.633 3.741 10.653 2.415 12.053-1.315 0.839-5.341-0.109-12.075-2.842a126.406 126.406 0 0 1-16.188-7.986c0.912-10.75 1.074-21.948 0.488-33.599-4.589-35.91-9.93-56.173-16.021-60.798-2.765-2.302-6.234-2.959-10.406-1.963-4.042 0.913-6.875 2.998-8.497 6.25-1.361 3.087-1.541 6.718-0.547 10.889 6.265 23.745 9.404 43.752 9.42 60.014-16.42-13.569-34.175-32.855-53.26-57.857l49.895-31.815c3.549-2.263 6.076-5.261 7.58-8.994 1.013-3.047 0.328-6.589-2.055-10.618-2.013-3.155-4.914-5.094-8.706-5.821-3.839-0.508-7.602 0.409-11.28 2.755l-7.1 4.527c-0.075-2.728-0.74-5.076-1.998-7.049-4.25-5.793-15.033-8.349-32.351-7.665-3.981 0.138-7.253 1.39-9.808 3.759-2.559 2.37-3.681 5.396-3.365 9.079 0.051 3.852 1.201 6.818 3.452 8.894 2.634 2.391 6.048 3.542 10.246 3.453 3.852-0.051 8.944 0.399 15.285 1.35l-25.44 16.222c-3.986-5.961-7.81-11.664-11.46-17.103-1.724-2.412-4.296-4.563-7.72-6.45-3.553-1.801-7.41-1.468-11.568 0.997-3.86 2.648-6.111 5.934-6.755 9.855-0.344 4.103 0.556 7.689 2.701 10.76a950.648 950.648 0 0 0 11.532 16.78l-66.46 42.378c-6.921 4.23-10.946 9.663-12.075 16.299-1.478 6.676-0.146 13.407 4 20.195l34.584 54.23z" fill="#ff8000" p-id="5663"></path></svg>