<?xml version="1.0" standalone="no"?><!DOCTYPE svg PUBLIC "-//W3C//DTD SVG 1.1//EN" "http://www.w3.org/Graphics/SVG/1.1/DTD/svg11.dtd"><svg t="1528531819006" class="icon" style="" viewBox="0 0 1056 1024" version="1.1" xmlns="http://www.w3.org/2000/svg" p-id="8661" xmlns:xlink="http://www.w3.org/1999/xlink" width="206.25" height="200"><defs><style type="text/css"></style></defs><path d="M746.27072 652.12928a11.37152 11.37152 0 0 0-15.488 4.3776l-0.03072 0.06144a260.7104 260.7104 0 0 1-96.48128 98.24768 257.92512 257.92512 0 0 1-132.57728 35.15904 11.48416 11.48416 0 0 0-11.57632 11.33568 11.37664 11.37664 0 0 0 11.14112 11.60704h0.08192A280.4736 280.4736 0 0 0 645.632 774.656a283.8528 283.8528 0 0 0 105.00096-106.94144 11.4688 11.4688 0 0 0-4.36224-15.58528z m-476.672-254.0032a11.32544 11.32544 0 0 0 15.5904-3.69152l0.08704-0.14336c22.41024-36.80768 54.02624-67.7888 91.40736-89.55904s79.76448-33.89952 122.58816-35.08224a11.48928 11.48928 0 0 0 11.13088-11.78112 11.36128 11.36128 0 0 0-11.5712-11.15136h-0.08192c-46.60736 1.28-92.73856 14.47936-133.41184 38.1696a284.22656 284.22656 0 0 0-99.47648 97.47968 11.4688 11.4688 0 0 0 3.7376 15.75936z m665.41056 126.46912a11.50464 11.50464 0 0 0-11.63776 11.29472c-2.92864 149.1712-81.32096 282.85952-209.70496 357.64224-128.384 74.77248-282.34752 76.41088-411.86816 4.38784a11.40224 11.40224 0 0 0-15.5136 4.51072 11.49952 11.49952 0 0 0 4.41344 15.59552 439.9872 439.9872 0 0 0 213.98528 55.31648c77.0048-0.11776 153.20064-20.85888 220.3392-59.97056s123.0592-95.28832 161.65376-162.5088a449.8688 449.8688 0 0 0 59.4944-214.60992 11.38176 11.38176 0 0 0-11.10016-11.65312l-0.06144-0.00512z m-859.04384 4.56704a11.53024 11.53024 0 0 0 11.78112-11.14624c4.84864-146.80576 83.18464-278.38976 209.57184-352 126.37184-73.61024 278.50752-76.25728 406.95808-7.08608a11.39712 11.39712 0 0 0 15.42144-4.66432l0.03072-0.05632a11.4944 11.4944 0 0 0-4.62848-15.52896A440.08448 440.08448 0 0 0 503.3472 86.21568c-75.96544 0.62976-151.13216 21.36064-217.38496 59.94496A444.85632 444.85632 0 0 0 125.7984 306.12992a450.11968 450.11968 0 0 0-60.83584 211.23072 11.3664 11.3664 0 0 0 10.91584 11.79648l0.08704 0.00512z m205.568-301.28128c0.4352 2.12992 2.048 3.81952 4.15744 4.36224l23.37792 5.92896 8.32 22.75328a5.66784 5.66784 0 0 0 10.15808 1.05984l12.928-20.5568 24.1152-1.01376a5.7344 5.7344 0 0 0 4.992-3.41504 5.73952 5.73952 0 0 0-0.8192-5.9904l-15.36512-18.64704 6.58944-23.39328a5.76 5.76 0 0 0-1.66912-5.80608 5.6832 5.6832 0 0 0-5.92896-1.05984l-22.42048 9.04704-20.0448-13.45024a5.67296 5.67296 0 0 0-6.01088-0.18944 5.7856 5.7856 0 0 0-2.85184 5.35552l1.51552 24.22784-18.97472 15.07328a5.77024 5.77024 0 0 0-2.06848 5.71392zM172.90752 337.64352c0.44544 2.14016 2.048 3.83488 4.16256 4.36224l23.37792 5.92896 8.30976 22.76352a5.67808 5.67808 0 0 0 10.16832 1.0496l12.91776-20.5568 24.11008-1.01376a5.74976 5.74976 0 1 0 4.18304-9.41056l-15.37536-18.64704 6.58944-23.39328a5.74976 5.74976 0 0 0-1.65888-5.80608 5.6832 5.6832 0 0 0-5.92896-1.05984l-22.4256 9.04704-20.03968-13.44a5.66784 5.66784 0 0 0-6.02112-0.18944 5.7856 5.7856 0 0 0-2.85184 5.34528l1.52576 24.22784-18.98496 15.08352a5.79584 5.79584 0 0 0-2.05824 5.7088z m342.83008-138.0096a5.77536 5.77536 0 0 0 1.55136-8.64768l-15.3856-18.64704 6.59968-23.38304a5.74976 5.74976 0 0 0-1.66912-5.81632 5.64736 5.64736 0 0 0-5.91872-1.04448l-22.4256 9.0368-20.03968-13.44a5.66784 5.66784 0 0 0-6.02112-0.18944c-1.88416 1.10592-2.98496 3.1744-2.85184 5.35552l1.52576 24.22784-18.98496 15.07328a5.76512 5.76512 0 0 0-2.048 5.7088c0.4352 2.12992 2.05312 3.81952 4.16256 4.352l23.36768 5.9392 8.30976 22.75328a5.6832 5.6832 0 0 0 10.17856 1.04448l12.91776-20.55168 24.1152-1.01376c0.9216-0.03072 1.82272-0.29184 2.61632-0.75776z m478.06464 109.22496l-54.50752-95.2576c-35.52256-62.06976-114.72896-83.27168-176.55808-47.25248L64.86528 572.81536c-61.81888 36.00896-83.21536 115.80416-47.6928 177.87392l54.51264 95.2576c35.52256 62.05952 114.72384 83.26144 176.55296 47.25248l697.86112-406.46144c61.80864-36.0192 83.23072-115.80416 47.70304-177.87904z m-59.07968 158.01856l-697.86112 406.4768c-50.92864 29.66016-116.16256 12.20096-145.41312-38.93248L36.93568 739.16416c-29.25568-51.1232-11.62752-116.84352 39.296-146.50368l697.856-406.46656c50.92864-29.66528 116.16256-12.20096 145.42336 38.92224l54.51264 95.2576c29.2608 51.12832 11.63776 116.85376-39.30112 146.50368z m-209.63328 357.19168a5.68832 5.68832 0 0 0-4.16256-4.352l-23.37792-5.9392-8.30976-22.75328a5.69344 5.69344 0 0 0-4.74112-3.72224 5.77024 5.77024 0 0 0-5.4272 2.65728l-12.91776 20.56192-24.1152 1.01376a5.77024 5.77024 0 0 0-4.17792 9.41056l15.38048 18.64704-6.58944 23.39328a5.6832 5.6832 0 1 0 7.58784 6.8608l22.43072-9.05216 20.03968 13.45024c1.80224 1.20832 4.14208 1.28 6.02112 0.18944 1.87904-1.10592 2.97984-3.1744 2.85184-5.35552l-1.53088-24.22784 18.97984-15.08352c1.71008-1.35168 2.5088-3.5584 2.05824-5.69856z m-235.77088 36.8896l15.37536 18.64704-6.58944 23.38304c-0.5888 2.10432 0.0512 4.36224 1.66912 5.82144 1.6128 1.45408 3.89632 1.85856 5.91872 1.04448l22.43584-9.0368 20.03968 13.44a5.632 5.632 0 0 0 6.01088 0.18432 5.7856 5.7856 0 0 0 2.85184-5.35552l-1.51552-24.22784 18.9696-15.07328a5.77024 5.77024 0 0 0-2.0992-10.06592l-23.37792-5.92896-8.29952-22.7584a5.71392 5.71392 0 0 0-4.75136-3.712 5.74976 5.74976 0 0 0-5.41696 2.65728l-12.928 20.56704-24.1152 0.9984a5.79072 5.79072 0 0 0-4.99712 3.40992c-0.8704 1.9968-0.55808 4.31616 0.8192 6.00576z m344.38656-146.64704a5.69344 5.69344 0 0 0-4.16256-4.36224l-23.36256-5.9392-8.32-22.74816a5.69344 5.69344 0 0 0-4.74112-3.72224 5.7344 5.7344 0 0 0-5.41696 2.65216l-12.92288 20.56704-24.12032 1.00352a5.76512 5.76512 0 0 0-4.17792 9.4208l15.38048 18.64192-6.5792 23.3984c-0.59904 2.08896 0.04608 4.34176 1.65888 5.80608 1.60768 1.4592 3.91168 1.8688 5.91872 1.05472l22.43072-9.04704 20.04992 13.45024c1.80224 1.2032 4.13184 1.28 6.01088 0.18432a5.7856 5.7856 0 0 0 2.85184-5.3504l-1.52064-24.22784 18.9696-15.0784c1.71008-1.36704 2.49856-3.56352 2.05312-5.70368z" p-id="8662" fill="#1296db"></path><path d="M411.89888 665.6768c4.66944 8.0896 4.85376 16.11264 0.5632 24.07424-3.30752 6.07232-9.04192 12.03712-17.19808 17.87904L293.10464 766.6176c-12.04224 3.73248-19.29728 5.74464-21.77024 6.0416-8.76032 0.896-15.22688-2.2784-19.39968-9.51296l-67.09248-116.20352c-0.36352-3.57376 1.01376-6.26176 4.14208-8.064 3.69152-2.12992 6.99392-2.14528 9.9072-0.04608l18.43712 31.9232 114.92864-66.36032c1.24928-2.42688 1.79712-4.9152 1.64352-7.4752a38.16448 38.16448 0 0 0-0.22528-1.85856l-25.8048-44.69248a10.61376 10.61376 0 0 0-5.30944-2.32448 18.2784 18.2784 0 0 0-2.74944 0.16896l-127.69792 73.728c-3.85536 0.52736-6.47168-0.23552-7.83872-2.2784-1.37216-2.048-2.432-3.712-3.16416-4.992-1.2288-2.12992-1.23392-4.11136-0.0256-5.9392 0.39936-0.6144 1.13152-1.31584 2.18624-2.11456l136.63744-78.89408c4.0192-1.5616 7.92064-1.35168 11.70944 0.61952 1.14176 0.6656 2.6112 1.89952 4.40832 3.70176l38.33856 66.4064c1.5616 4.0192 1.3568 7.92064-0.61952 11.70432-0.6656 1.14688-1.89952 2.6112-3.70176 4.4032L226.176 686.08l36.13184 62.57664c4.82816 3.45088 10.1632 4.81792 15.98976 4.10624 1.88928-0.3328 4.30592-1.06496 7.24992-2.19648l99.59936-57.50784c6.38464-3.69152 9.472-9.15968 9.25696-16.4096-0.07168-2.42176-0.8192-5.67296-2.23744-9.7792l-11.8016-20.4288c-1.05984-1.83808-1.14176-3.69152-0.22016-5.55008 0.91648-1.84832 2.44224-3.38944 4.56704-4.61824 2.26816-1.31072 4.3776-1.91488 6.33344-1.81248 1.95072 0.10752 3.50208 1.152 4.64384 3.12832l16.20992 28.08832zM565.49376 425.45664c1.92 6.272 3.15904 11.03872 3.72224 14.30528 0.96256 6.25664-0.8448 10.32704-5.43232 12.21632-2.10944 0.27648-3.94752-0.03584-5.504-0.93696a9.87648 9.87648 0 0 1-3.6864-3.6864 17.6384 17.6384 0 0 1-1.85344-4.18304 47.5136 47.5136 0 0 0-0.896-3.03104 34.7904 34.7904 0 0 0-3.75808-9.46688c-1.38752-2.41152-2.95936-4.06016-4.70528-4.94592-1.7408-0.88064-3.8144-0.63488-6.22592 0.75776l-130.2528 75.20768c-2.12992 1.2288-3.1232 2.93888-2.9952 5.13536 0.04608 0.73216 0.32256 1.70496 0.83968 2.92352l11.79648 20.43392c-0.55296 4.29056-2.18112 7.21408-4.86912 8.77056-2.27328 1.31072-5.0432 1.59232-8.32 0.82944a21.7088 21.7088 0 0 1-2.13504-0.75264l-17.69472-30.64832c-1.56672-4.01408-1.3568-7.9104 0.61952-11.70944 0.66048-1.13664 1.8944-2.6112 3.69664-4.4032l66.4064-38.33856-7.3728-12.7744a10.55232 10.55232 0 0 1 0.65024-5.76c0.26112-0.53248 0.75776-1.29024 1.5104-2.29376l6.38464-3.6864c2.1248-1.2288 4.11136-1.23904 5.94432-0.0256 0.60928 0.40448 1.31584 1.13664 2.10944 2.18112l7.3728 12.7744 66.4064-38.33856c4.81792-2.78528 9.44128-3.13344 13.86496-1.05472 4.41856 2.08896 8.02304 5.53984 10.8032 10.36288 1.80224 3.1232 2.99008 6.5024 3.57376 10.1376z m64.88576 112.36864c1.4336 1.82272 2.47296 3.30752 3.12832 4.43392 4.42368 7.66464 5.71904 15.81056 3.8912 24.43264-1.83296 8.62208-6.72256 15.232-14.66368 19.8144l-30.64832 17.69984c-6.8096 3.93216-13.66016 4.19328-20.54656 0.78848-2.2016-1.18784-4.93056-3.3024-8.19712-6.33344l-37.60128-65.1264-38.30784 22.1184 8.11008 14.04416c6.67136 14.50496 9.18528 29.51168 7.54688 45.02016-1.6384 15.5136-7.50592 29.11744-17.5872 40.8064a2434.304 2434.304 0 0 0-12.59008 14.08 9.728 9.728 0 0 1-7.64928 1.00864c-1.82784-1.20832-3.11808-2.45248-3.85536-3.73248-1.80736-3.11808-1.47456-6.80448 0.98304-11.06944 0.72704-1.36704 3.16928-4.66432 7.33696-9.9072 9.02656-8.62208 14.51008-19.92192 16.46592-33.90976 1.95072-13.98784-0.35328-26.65984-6.912-38.016l-5.89824-10.2144-43.41248 25.06752c-2.12992 1.22368-4.11136 1.23392-5.94432 0.0256-0.6144-0.39936-1.31584-1.13152-2.10944-2.18624-2.45248-2.93376-3.328-5.92384-2.6368-8.98048 0.1536-1.03936 0.768-2.432 1.83808-4.18816l168.56576-97.32096c1.88928-0.32768 3.81952 0.06656 5.79584 1.19808 1.97632 1.1264 3.50208 2.61632 4.56704 4.45952 2.21184 3.82976 1.70496 7.05536-1.51552 9.66656l-57.46176 33.1776 36.12672 62.57664 6.77888 2.8928 26.81344-15.47776c4.13184-3.33312 6.91712-7.02464 8.36608-11.07456 1.77152-4.80256 1.13664-9.1648-1.88416-13.10208l-8.85248-15.32416a8.63744 8.63744 0 0 1 0.86016-5.88288c0.98304-1.8944 2.40128-3.37408 4.24448-4.43904 2.12992-1.22368 4.14208-1.67936 6.03136-1.3568 1.88928 0.32768 3.5328 1.69984 4.92544 4.11136l5.89824 10.21952z m-83.33312-67.66592l-108.54912 62.6688c-3.86048 0.53248-6.4768-0.2304-7.83872-2.2784a88.95488 88.95488 0 0 1-3.16416-4.98176c-1.22368-2.12992-1.23392-4.11136-0.0256-5.94944 0.39936-0.60416 1.13152-1.31072 2.18624-2.10944l108.544-62.67392c4.29056 0.55296 7.20896 2.18112 8.77056 4.86912 1.31072 2.27328 1.5872 5.0432 0.82944 8.32a24.28416 24.28416 0 0 1-0.75264 2.13504zM828.4672 389.40672c1.10592 1.2544 2.56512 3.29728 4.38784 6.1184 1.81248 2.83136 2.81088 4.38272 2.97472 4.66944 2.04288 3.54816 4.21376 7.7824 6.49216 12.71296 5.39648 11.63776 8.95488 18.94912 10.6752 21.92896 0.768 4.28032 1.24928 7.40864 1.44384 9.37984 0.21504 3.6608-0.78336 6.50752-3.01568 8.5504l-6.37952 3.6864c-13.76256-0.56832-27.68896-3.87584-41.7792-9.9328-4.59776-2.06848-10.20928-5.07392-16.83456-9.00608-3.5328 13.2096-8.40704 26.89536-14.60224 41.06752a401.08544 401.08544 0 0 1-8.9088 18.4832 20.0448 20.0448 0 0 1-5.07904 8.89344 24.94976 24.94976 0 0 1-3.46624 2.85184c-4.2496 2.4576-7.81312 1.2032-10.68544-3.7632a13.55264 13.55264 0 0 1-1.79712-6.05696c7.09632-12.60544 12.47232-23.94112 16.128-34.00192 4.97664-13.65504 7.65952-27.02848 8.04864-40.12032-12.1344-8.88832-24.66816-19.61984-37.61152-32.2048-8.48896-8.15104-17.41824-17.5616-26.79808-28.23168l-10.16832-11.71968-57.46688 33.1776a10.5216 10.5216 0 0 0-2.32448 5.31456c-0.04096 0.59392 0.02048 1.50528 0.16384 2.74432l8.84736 15.32416 47.04256-27.1616c1.5616-0.90112 3.11808-1.14176 4.68992-0.72192 1.56672 0.41984 2.80064 1.408 3.70176 2.97472l22.7328 39.3728 5.16096 8.93952c7.12704 12.34432 11.45856 22.13888 12.99456 29.3888 2.55488 11.96032 0.08192 22.08768-7.41888 30.39232l-8.93952 5.16096-16.26112 4.28032c-2.1504 0.86016-3.96288 0.9216-5.44256 0.15872-1.47968-0.74752-2.7904-2.11968-3.93728-4.10624-0.90624-1.5616-1.60768-3.28192-2.1248-5.15584s-0.91136-3.21024-1.1776-4.00384c1.92-2.24256 3.87584-3.9424 5.86752-5.08928 1.98656-1.14688 3.51744-1.93024 4.58752-2.36544a498.23232 498.23232 0 0 0 8.48896-3.4816c2.688-1.55648 4.64384-3.25632 5.8624-5.08928a32.54784 32.54784 0 0 0-1.06496-13.14816 60.54912 60.54912 0 0 0-5.66784-12.75904l-4.60288-7.98208a65.0752 65.0752 0 0 1-2.9184-5.55008l-15.48288-26.81344-35.75296 20.64384 11.0592 19.1488c6.9632 12.06272 12.93312 25.35936 17.92 39.8848a319.98464 319.98464 0 0 1 9.1392 33.03424c2.01216 9.05728 2.87744 13.66528 2.59584 13.824 0.5376 2.89792 0.32256 5.48352-0.64 7.74656s-2.44224 3.96288-4.4288 5.11488c-2.1248 1.2288-4.27008 1.60768-6.4256 1.152-2.15552-0.45568-3.93216-1.88928-5.3248-4.3008a13.24544 13.24544 0 0 1-1.25952-2.67264c-2.12992-13.52704-5.56544-27.33568-10.30144-41.4464a346.40384 346.40384 0 0 0-11.60192-29.91104l-5.53984-11.55584-37.60128-65.1264c-1.56672-4.0192-1.36192-7.92064 0.61952-11.70944 0.66048-1.14176 1.89952-2.6112 3.69664-4.40832l67.68128-39.07584-15.62624-18.22208c-2.70336-4.6848-2.59072-8.90368 0.33792-12.68224 1.02912-1.16736 2.78016-2.55488 5.248-4.16768 5.22752 0.2048 10.3424 4.06016 15.33952 11.57632 5.00224 7.52128 8.77056 12.16 11.29984 13.91104l38.30784-22.1184-26.33728 1.5872c-2.51392 0.88064-4.77696 0.81408-6.77888-0.19968s-3.66592-2.6624-4.97664-4.93056c-1.152-1.98656-1.87904-4.39808-2.2016-7.2448 1.26976-2.05312 2.89792-3.65568 4.8896-4.80256 2.97984-1.72032 7.30112-2.42176 12.97408-2.10432 8.02304 0.47616 12.928 0.53248 14.70464 0.16896 1.78176-0.36352 3.61472-0.0512 5.50912 0.93696 1.88928 0.98816 3.37408 2.4064 4.43904 4.24448 2.45248 4.25472 2.14016 8.13056-0.95744 11.6224l20.4288-11.79648c2.12992-1.2288 4.3264-1.36192 6.58432-0.39424 0.75264 0.32256 1.66912 0.92672 2.74944 1.81248l3.69152 6.38976c1.22368 2.12992 1.23392 4.11136 0.02048 5.94432-0.39936 0.6144-1.13152 1.31584-2.18624 2.11456L708.096 343.12192c7.28064 9.984 16.76288 20.67968 28.46208 32.09216a465.5104 465.5104 0 0 0 31.06304 27.7504c-0.59392-9.87136-2.32448-20.40832-5.20192-31.616a369.29536 369.29536 0 0 0-4.39296-14.49472 26.86464 26.86464 0 0 1-2.29888-3.49184c-2.70336-4.6848-3.712-8.54528-3.01056-11.60192 0.24064-0.89088 0.90624-2.03776 2.00192-3.42016l6.38464-3.6864a10.60352 10.60352 0 0 1 5.76 0.64512c0.53248 0.26112 1.29536 0.768 2.29376 1.5104 10.30144 27.35616 16.04096 50.23744 17.22368 68.66432 0.256 3.06688 0.22528 6.77376-0.10752 11.12576l18.03264 10.58304c5.33504 2.03264 9.344 3.4048 12.02688 4.12672 5.01248 1.46432 8.71424 1.49504 11.13088 0.10752 0.98816-0.57344 1.69472-1.16736 2.09408-1.77664l-11.65312-29.0304c-2.04288-3.54304-0.79872-6.6304 3.74272-9.25184 2.55488-1.47968 4.82816-2.12992 6.81984-1.95072z" p-id="8663" fill="#1296db"></path></svg>